<?xml version="1.0" standalone="no"?>
<!DOCTYPE svg PUBLIC "-//W3C//DTD SVG 20010904//EN"
 "http://www.w3.org/TR/2001/REC-SVG-20010904/DTD/svg10.dtd">
<svg version="1.0" xmlns="http://www.w3.org/2000/svg"
 width="260.000000pt" height="260.000000pt" viewBox="0 0 260.000000 260.000000"
 preserveAspectRatio="xMidYMid meet">
<metadata>
Created by potrace 1.11, written by Peter Selinger 2001-2013
</metadata>
<g transform="translate(0.000000,260.000000) scale(0.100000,-0.100000)"
fill="#000000" stroke="none">
<path d="M383 2586 c-181 -44 -334 -202 -372 -384 -15 -74 -15 -1730 0 -1804
39 -187 200 -348 387 -387 74 -15 1730 -15 1804 0 178 37 334 185 380 358 15
60 17 147 17 931 1 952 3 923 -60 1041 -38 71 -136 167 -207 203 -113 57 -90
56 -1032 55 -655 0 -877 -4 -917 -13z m1140 -494 c55 -27 77 -46 112 -94 53
-71 65 -109 65 -204 0 -92 -20 -156 -87 -284 -108 -205 -215 -349 -285 -386
-43 -22 -102 -18 -136 11 -40 34 -60 88 -68 185 -4 44 -10 80 -14 80 -14 0
-84 -145 -215 -445 l-132 -300 446 -3 c288 -1 464 1 498 8 142 30 225 178 195
351 -24 137 -110 252 -230 306 -31 14 -58 27 -60 28 -3 3 66 126 77 138 4 4
36 -7 72 -25 89 -44 206 -161 247 -249 82 -173 82 -357 0 -511 -39 -74 -102
-131 -186 -171 l-67 -32 -617 -3 c-340 -1 -618 0 -618 3 0 11 330 767 377 863
52 108 118 199 161 225 37 21 93 22 132 2 35 -18 76 -101 85 -170 12 -98 15
-107 31 -94 21 18 115 172 167 275 96 189 85 298 -35 350 -39 17 -79 19 -410
22 l-368 3 0 -469 0 -469 -80 -189 -79 -189 -1 673 c0 641 1 675 19 710 22 43
46 67 81 81 16 6 179 9 440 8 l415 -2 68 -33z"/>
</g>
</svg>
