<svg version="1.1" xmlns="http://www.w3.org/2000/svg" xmlns:xlink="http://www.w3.org/1999/xlink" x="0px" y="0px" viewBox="0 0 19 26">
	<path class="st0" d="M18.3,4.2h-3.6V3.4c0-0.4-0.3-0.7-0.7-0.7h-1.6l-0.8-2.2C11.4,0.2,11.2,0,10.8,0H8.1C7.8,0,7.6,0.2,7.5,0.5 L6.7,2.7H5.1C4.7,2.7,4.3,3,4.3,3.4v0.8H0.7C0.3,4.2,0,4.5,0,4.9v20.3C0,25.7,0.3,26,0.7,26h17.5c0.4,0,0.7-0.3,0.7-0.7V4.9 C19,4.5,18.7,4.2,18.3,4.2z M8.7,1.4h1.7l0.4,1.2H8.2L8.7,1.4z M5.8,4.1h7.4v2.2H5.8V4.1z M17.5,24.6H1.5V5.7h2.9V7 c0,0.4,0.3,0.7,0.7,0.7h8.9c0.4,0,0.7-0.3,0.7-0.7V5.7h2.9V24.6z M3.4,10.7c0,0.4,0.3,0.7,0.7,0.7h10.8c0.4,0,0.7-0.3,0.7-0.7 c0-0.4-0.3-0.7-0.7-0.7H4.1C3.7,9.9,3.4,10.3,3.4,10.7z M14.9,13.5H4.1c-0.4,0-0.7,0.3-0.7,0.7c0,0.4,0.3,0.7,0.7,0.7h10.8 c0.4,0,0.7-0.3,0.7-0.7C15.6,13.9,15.3,13.5,14.9,13.5z M14.9,17.1H4.1c-0.4,0-0.7,0.3-0.7,0.7c0,0.4,0.3,0.7,0.7,0.7h10.8 c0.4,0,0.7-0.3,0.7-0.7C15.6,17.5,15.3,17.1,14.9,17.1z M14.9,20.7H4.1c-0.4,0-0.7,0.3-0.7,0.7c0,0.4,0.3,0.7,0.7,0.7h10.8 c0.4,0,0.7-0.3,0.7-0.7C15.6,21.1,15.3,20.7,14.9,20.7z"/>
</svg>
