<svg xmlns="http://www.w3.org/2000/svg"><symbol viewBox="250.5 372 111 42.3" id="kpeiz-logo"><title>kpeiz-logo</title> <polygon points="250.5,405 250.5,372 262.5,372 262.5,377 256,377 256,405"/> <polygon points="260.8,388.5 266.5,379.9 272.5,379.9 264.4,392.1 273,405 266.8,405 260.8,395.8 258.7,392.1"/> <path d="M301.5,392.7c0,7.5-4.7,12.6-11.9,12.6c-4,0-7-1.6-8.9-4.5v13.5h-5.4v-34.3h5.4v4.3 c1.8-2.9,4.9-4.5,8.8-4.5C296.6,379.9,301.5,385.1,301.5,392.7 M296,392.5c0-4.7-3.2-8.1-7.6-8.1s-7.6,3.4-7.6,8.1 c0,4.9,3.2,8.2,7.6,8.2S296,397.3,296,392.5"/> <path d="M328.3,394.4h-19c0.8,3.9,3.8,6.3,7.8,6.3c2.7,0,5.2-1,7.1-2.9l2.9,3.1c-2.5,2.7-6,4.2-10.4,4.2 c-7.7,0-12.8-5.1-12.8-12.7c0-7.6,5.2-12.7,12.7-12.8C325.4,379.5,329,385.3,328.3,394.4 M323.6,390.4c-0.2-4.1-2.9-6.5-7-6.5 c-4,0-6.7,2.5-7.4,6.5H323.6z"/> <rect x="331.6" y="379.9" width="5.4" height="25.1"/> <polygon points="346.8,400.5 361.5,400.6 361.5,405 340.1,405 340.1,401.3 354.4,384.3 340.5,384.3 340.5,379.9 361.1,379.9 361.1,383.6"/> </symbol><symbol viewBox="0 0 106.9 110.8" id="logo-animated"><title>logo-animated</title> <g fill="none" stroke-width="10" stroke-miterlimit="10"> <path d="M78.3,47.7c21.3,11.5,23.2,28.1,23.2,28.1c4.2,30.7-24.2,30-24.2,30h-68l2.3-5.8c18.8-47.3,25-54.8,25-54.8 c7.8-9.1,9.8,0,9.8,0l1.6,11.6c1.4,10.8,7.9,5.8,7.9,5.8C75.3,39.8,77.2,24,77.2,24C77.8,6,61.5,5,61.5,5L10,5c-5-0.3-5,5.3-5,5.3 c0,5.4,0,73.4,0,75"/> </g> </symbol><symbol viewBox="0 0 107.8 111.7" id="logo"><title>logo</title> <path d="M57.5,11L57.5,11c0.1,0,1.2,0,2.7,0.3c1.1,0.2,2.5,0.5,3.8,1c1,0.4,2,0.8,2.9,1.4c1.3,0.8,2.4,1.8,3.2,3.1 c0.8,1.3,1.3,2.9,1.3,5.5c0,2.6-0.7,6.2-2.5,10.9L79,37.2c2.3-5.6,3.3-10.6,3.3-15c0-2.6-0.4-5.1-1.1-7.2c-0.6-1.9-1.5-3.6-2.6-5.2 c-1.9-2.6-3.9-4.8-6.3-6.1c-3.5-2-6.5-2.9-9.2-3.3C60.5-0.1,57.7,0,57.5,0c0,0-10.5,0-21.6,0S13.2,0,10.8,0C9.7,0,8.6,0.2,7.6,0.5 C5.8,1,4.4,2.1,3.3,3.2C2.6,4,2,4.8,1.6,5.6c-0.6,1.2-1,2.2-1.2,3C0.1,9.4,0.1,10,0,10.2l0,0.3v90l11-26h0V10.8H5.5l5.5,0.7 l-3.4-0.4l3.3,0.5l0-0.1l-3.4-0.4l3.3,0.5l-0.9-0.1l0.9,0.1l0,0l-0.9-0.1l0.9,0.1l0-0.1c0-0.1,0.1-0.3,0.2-0.5 c0-0.1,0.1-0.2,0.1-0.3l0,0l0,0l-0.6-0.5l0.3,0.7c0.1-0.1,0.2-0.2,0.2-0.2l-0.6-0.5l0.3,0.7l-0.4-0.8l0.2,0.8l0.2-0.1l-0.4-0.8 l0.2,0.8l-0.1-0.4l0,0.4l0,0l-0.1-0.4l0,0.4l0,0C15.5,11,57.5,11,57.5,11"/> <line x1="57.5" y1="11" x2="57.5" y2="11"/> <path d="M76.1,53.8c3.7,0.6,5.8,1.9,8.5,3.6c4,2.5,7.1,6.1,9.1,10.2c2.1,4.1,3.1,8.7,3.1,13.1c0,2.8-0.4,5.5-1.2,7.9 c-0.6,1.8-1.4,3.5-2.4,4.9c-1.5,2.2-3.4,3.9-5.8,5.2c-2.4,1.2-5.3,2-9,2c-18.8,0-36.1,0-48.6,0c-6.3,0-11.3,0-14.9,0 c-3.5,0-5.5,0-5.5,0v5.5l5,2.2c0,0,0,0,19.3-44c1.7-3.8,3.2-7,4.6-9.5c2-3.8,3.7-6.2,4.8-7.3c0.5-0.6,0.9-0.8,0.9-0.8l0,0l-0.6-1.1 l0.3,1.2c0.2,0,0.3-0.1,0.3-0.1l-0.6-1.1l0.3,1.2l-0.7-2.5v2.6c0.3,0,0.6,0,0.7-0.1l-0.7-2.5v2.6v-3.1L42,46.7 c0.3,0.1,0.8,0.2,1.1,0.2v-3.1L42,46.7l1-2.5l-1.7,2.1c0.1,0.1,0.4,0.3,0.7,0.4l1-2.5l-1.7,2.1l0.9-1.1l-1.1,0.9 c0,0,0.1,0.1,0.2,0.2l0.9-1.1l-1.1,0.9l0.2-0.2l-0.2,0.1l0,0l0.2-0.2l-0.2,0.1c0,0,0.1,0.2,0.3,0.5c0.3,0.6,0.5,1.5,0.8,2.6 c0.3,1.6,0.6,3.4,0.7,4.8c0.1,0.7,0.1,1.3,0.1,1.7c0,0.2,0,0.3,0,0.4l0,0.1l0,0l1.3,0l-1.3,0v0l1.3,0l-1.3,0l0,0 c0,0.1,0,0.7,0.1,1.7c0.1,0.7,0.2,1.6,0.4,2.6c0.2,0.7,0.4,1.5,0.7,2.4c0.2,0.6,0.5,1.3,0.9,2c0.6,1,1.3,2.1,2.6,3.1 c0.6,0.5,1.4,0.9,2.2,1.2c0.8,0.3,1.8,0.5,2.7,0.4c1.1,0,2.2-0.2,3.1-0.6c1.7-0.6,3.1-1.6,4.5-2.8c2.1-1.8,4.2-4.3,6.6-7.8 c2.4-3.5,5.1-7.9,8.3-13.7c1.6-3,2.6-4.9,4-7.5c5.2-10.5,3.9-20.1,1.1-25c-3.2,5.8-7.7,14.2-14.8,27.2c-4.5,8.4-8.1,13.6-10.5,16.5 c-1.2,1.4-2.2,2.2-2.6,2.6c-0.1,0.1-0.2,0.1-0.3,0.2l0,0l0,0l0.6,1.6l0-1.7c-0.4,0-0.6,0.1-0.6,0.1l0.6,1.6l0-1.7v2.9l1.5-2.5 c-0.4-0.2-1-0.4-1.5-0.4v2.9l1.5-2.5l-1.1,2l1.8-1.4c-0.1-0.1-0.3-0.3-0.6-0.5l-1.1,2l1.8-1.4L53.9,60l0.7-0.4l-0.1-0.1L53.9,60 l0.7-0.4l-0.1,0l0.1,0l0,0l-0.1,0l0.1,0c0,0-0.1-0.3-0.3-0.7c-0.2-0.6-0.3-1.4-0.4-2c0-0.3,0-0.6-0.1-0.7l0-0.2l0,0L51.5,56l2.4,0 l0,0L51.5,56l2.4,0l0,0c0-0.1,0-1.1-0.1-2.6c-0.1-1.1-0.2-2.5-0.5-4.1c-0.2-1.1-0.4-2.4-0.7-3.6c-0.2-0.9-0.5-1.9-0.9-2.8 c-0.3-0.7-0.6-1.4-1-2.1c-0.6-1.1-1.4-2.2-2.6-3.1c-0.6-0.5-1.4-0.9-2.2-1.2c-0.9-0.3-1.8-0.5-2.7-0.5c-1.2,0-2.3,0.3-3.2,0.6 c-1.7,0.7-3,1.7-4.3,3c-1.9,1.9-3.6,4.3-5.5,7.6c-1.9,3.3-4,7.5-6.3,12.8C4.5,104,4.5,104,4.5,104l-3.4,7.7h8.4c0,0,2,0,5.5,0 c10.6,0,35.2,0,63.4,0c4.7,0,9-0.9,12.7-2.6c2.8-1.3,5.3-3,7.4-5c3.2-3,5.5-6.7,7-10.7c1.5-4,2.2-8.3,2.2-12.6 c0-4.1-0.6-8.2-1.9-12.2c-1.9-6-5.3-11.7-10.1-16.3c-4.8-4.6-11.3-8.1-14.2-8.3L76.1,53.8z"/> <circle class="svg-logo-dot" cx="98.5" cy="21.1" r="9.3"/> </symbol></svg>