<svg xmlns="http://www.w3.org/2000/svg"><symbol viewBox="0 0 7 13" id="icon-angle-right"><title>icon-angle-right</title> <path d="M6.8,7.1l-5.3,5.6c-0.3,0.4-0.9,0.4-1.2,0c-0.3-0.4-0.3-0.9,0-1.3l4.7-4.9L0.3,1.6c-0.3-0.4-0.3-0.9,0-1.3 c0.3-0.4,0.9-0.4,1.2,0l5.3,5.6C6.9,6,7,6.3,7,6.5C7,6.7,6.9,7,6.8,7.1z"/> </symbol><symbol viewBox="0 0 20 20" id="icon-bell"><title>icon-bell</title> <path d="M14.65,8.512c-2.28-4.907-3.466-6.771-7.191-6.693C6.132,1.846,6.45,0.857,5.438,1.232 c-1.01,0.375-0.143,0.924-1.177,1.773c-2.902,2.383-2.635,4.587-1.289,9.84c0.567,2.213-1.367,2.321-0.602,4.465 c0.559,1.564,4.679,2.219,9.025,0.607c4.347-1.613,7.086-4.814,6.527-6.378C17.157,9.394,15.611,10.578,14.65,8.512z M10.924,16.595 c-3.882,1.44-7.072,0.594-7.207,0.217c-0.232-0.65,1.253-2.816,5.691-4.463s6.915-1.036,7.174-0.311 C16.735,12.467,14.807,15.154,10.924,16.595z M9.676,13.101c-2.029,0.753-3.439,1.614-4.353,2.389 c0.643,0.584,1.847,0.726,3.046,0.281c1.527-0.565,2.466-1.866,2.095-2.904c-0.005-0.013-0.011-0.023-0.016-0.036 C10.197,12.913,9.94,13.002,9.676,13.101z"/> </symbol><symbol viewBox="0 0 21 21" id="icon-calendar"><title>icon-calendar</title> <path d="M19.2,2.5h-0.6V1.8c0-1-0.8-1.8-1.8-1.8c-1,0-1.8,0.8-1.8,1.8v0.6H6.2V1.8c0-1-0.8-1.8-1.8-1.8 S2.5,0.8,2.5,1.8v0.6H1.8C0.8,2.5,0,3.3,0,4.3v14.8c0,1,0.8,1.8,1.8,1.8h17.3c1,0,1.8-0.8,1.8-1.8V4.3C21,3.3,20.2,2.5,19.2,2.5z M16.1,1.8c0-0.3,0.3-0.6,0.6-0.6c0.3,0,0.6,0.3,0.6,0.6v2.5c0,0.3-0.3,0.6-0.6,0.6c-0.3,0-0.6-0.3-0.6-0.6V1.8z M3.7,1.8 c0-0.3,0.3-0.6,0.6-0.6c0.3,0,0.6,0.3,0.6,0.6v2.5c0,0.3-0.3,0.6-0.6,0.6C4,4.9,3.7,4.6,3.7,4.3V1.8z M19.8,19.2 c0,0.3-0.3,0.6-0.6,0.6H1.8c-0.3,0-0.6-0.3-0.6-0.6V8.7h18.5V19.2z M19.8,7.5H1.2V4.3c0-0.3,0.3-0.6,0.6-0.6h0.6v0.6 c0,1,0.8,1.8,1.8,1.8s1.8-0.8,1.8-1.8V3.7h8.7v0.6c0,1,0.8,1.8,1.8,1.8c1,0,1.8-0.8,1.8-1.8V3.7h0.6c0.3,0,0.6,0.3,0.6,0.6V7.5z M4.3,13.6h2.5c0.3,0,0.6-0.3,0.6-0.6v-2.5c0-0.3-0.3-0.6-0.6-0.6H4.3c-0.3,0-0.6,0.3-0.6,0.6V13C3.7,13.3,4,13.6,4.3,13.6z M5,11.2h1.2v1.2H5V11.2z M4.3,18.5h2.5c0.3,0,0.6-0.3,0.6-0.6v-2.5c0-0.3-0.3-0.6-0.6-0.6H4.3c-0.3,0-0.6,0.3-0.6,0.6v2.5 C3.7,18.3,4,18.5,4.3,18.5z M5,16.1h1.2v1.2H5V16.1z M9.3,18.5h2.5c0.3,0,0.6-0.3,0.6-0.6v-2.5c0-0.3-0.3-0.6-0.6-0.6H9.3 c-0.3,0-0.6,0.3-0.6,0.6v2.5C8.7,18.3,8.9,18.5,9.3,18.5z M9.9,16.1h1.2v1.2H9.9V16.1z M9.3,13.6h2.5c0.3,0,0.6-0.3,0.6-0.6v-2.5 c0-0.3-0.3-0.6-0.6-0.6H9.3c-0.3,0-0.6,0.3-0.6,0.6V13C8.7,13.3,8.9,13.6,9.3,13.6z M9.9,11.2h1.2v1.2H9.9V11.2z M14.2,13.6h2.5 c0.3,0,0.6-0.3,0.6-0.6v-2.5c0-0.3-0.3-0.6-0.6-0.6h-2.5c-0.3,0-0.6,0.3-0.6,0.6V13C13.6,13.3,13.9,13.6,14.2,13.6z M14.8,11.2H16 v1.2h-1.2V11.2z M14.2,18.5h2.5c0.3,0,0.6-0.3,0.6-0.6v-2.5c0-0.3-0.3-0.6-0.6-0.6h-2.5c-0.3,0-0.6,0.3-0.6,0.6v2.5 C13.6,18.3,13.9,18.5,14.2,18.5z M14.8,16.1H16v1.2h-1.2V16.1z"/> </symbol><symbol viewBox="0 0 19 26" id="icon-clipboard"><title>icon-clipboard</title> <path class="st0" d="M18.3,4.2h-3.6V3.4c0-0.4-0.3-0.7-0.7-0.7h-1.6l-0.8-2.2C11.4,0.2,11.2,0,10.8,0H8.1C7.8,0,7.6,0.2,7.5,0.5 L6.7,2.7H5.1C4.7,2.7,4.3,3,4.3,3.4v0.8H0.7C0.3,4.2,0,4.5,0,4.9v20.3C0,25.7,0.3,26,0.7,26h17.5c0.4,0,0.7-0.3,0.7-0.7V4.9 C19,4.5,18.7,4.2,18.3,4.2z M8.7,1.4h1.7l0.4,1.2H8.2L8.7,1.4z M5.8,4.1h7.4v2.2H5.8V4.1z M17.5,24.6H1.5V5.7h2.9V7 c0,0.4,0.3,0.7,0.7,0.7h8.9c0.4,0,0.7-0.3,0.7-0.7V5.7h2.9V24.6z M3.4,10.7c0,0.4,0.3,0.7,0.7,0.7h10.8c0.4,0,0.7-0.3,0.7-0.7 c0-0.4-0.3-0.7-0.7-0.7H4.1C3.7,9.9,3.4,10.3,3.4,10.7z M14.9,13.5H4.1c-0.4,0-0.7,0.3-0.7,0.7c0,0.4,0.3,0.7,0.7,0.7h10.8 c0.4,0,0.7-0.3,0.7-0.7C15.6,13.9,15.3,13.5,14.9,13.5z M14.9,17.1H4.1c-0.4,0-0.7,0.3-0.7,0.7c0,0.4,0.3,0.7,0.7,0.7h10.8 c0.4,0,0.7-0.3,0.7-0.7C15.6,17.5,15.3,17.1,14.9,17.1z M14.9,20.7H4.1c-0.4,0-0.7,0.3-0.7,0.7c0,0.4,0.3,0.7,0.7,0.7h10.8 c0.4,0,0.7-0.3,0.7-0.7C15.6,21.1,15.3,20.7,14.9,20.7z"/> </symbol><symbol viewBox="0 0 512 512" id="icon-power-button"><title>icon-power-button</title> <path d="M336.709,74.843c-10.322-3.944-21.88,1.219-25.825,11.537c-3.945,10.316,1.22,21.879,11.536,25.824 C393.115,139.239,442,207.384,442,286c0,102.561-83.439,186-186,186S70,388.561,70,286c0-78.659,48.908-146.766,119.573-173.793 c10.317-3.946,15.481-15.509,11.536-25.825c-3.947-10.317-15.512-15.48-25.825-11.536C89.185,107.777,30,190.692,30,286 c0,124.922,101.09,226,226,226c124.922,0,226-101.09,226-226C482,190.65,422.778,107.759,336.709,74.843z"/> <path d="M256,0c-11.046,0-20,8.954-20,20v195.851c0,11.046,8.954,20,20,20s20-8.955,20-20V20C276,8.954,267.046,0,256,0z"/> </symbol><symbol viewBox="0 0 512 512" id="icon-printer"><title>icon-printer</title> <path d="M493,352.9V174c0-23.8-19.4-43.2-43.2-43.2H403V39.7c0-15.8-12.9-28.7-28.7-28.7H137.5c-15.8,0-28.7,12.9-28.7,28.7v91.2 H62.2C38.4,130.8,19,150.2,19,174v178.9c0,23.8,19.4,43.2,43.2,43.2h46.7v76.2c0,15.8,12.9,28.7,28.7,28.7h236.8 c15.8,0,28.7-12.9,28.7-28.7v-76.2h46.7C473.6,396.1,493,376.8,493,352.9z M133.4,39.7c0-2.3,1.9-4.2,4.2-4.2h236.8 c2.3,0,4.2,1.9,4.2,4.2v91.2H133.4V39.7z M378.6,472.3c0,2.3-1.9,4.2-4.2,4.2H137.6c-2.3,0-4.2-1.9-4.2-4.2V275.7h245.1V472.3z M390.8,251.2H121.2c-6.8,0-12.3,5.5-12.3,12.3v108.1H62.2c-10.3,0-18.7-8.4-18.7-18.7V174c0-10.3,8.4-18.7,18.7-18.7h387.5 c10.3,0,18.7,8.4,18.7,18.7v178.9c0,10.3-8.4,18.7-18.7,18.7h-46.7V263.5C403.1,256.7,397.6,251.2,390.8,251.2z"/> <path d="M82.5,194.4c-2.3,2.3-3.6,5.4-3.6,8.7c0,3.2,1.3,6.4,3.6,8.7c2.3,2.3,5.4,3.6,8.7,3.6c3.2,0,6.4-1.3,8.7-3.6 c2.3-2.3,3.6-5.5,3.6-8.7c0-3.2-1.3-6.4-3.6-8.7C95.2,189.8,87,189.8,82.5,194.4z"/> <path d="M325.5,363.9H186.5c-6.8,0-12.3,5.5-12.3,12.3c0,6.8,5.5,12.3,12.3,12.3h138.9c6.8,0,12.3-5.5,12.3-12.3 C337.7,369.4,332.2,363.9,325.5,363.9z"/> <path d="M325.5,419.4H186.5c-6.8,0-12.3,5.5-12.3,12.3s5.5,12.3,12.3,12.3h138.9c6.8,0,12.3-5.5,12.3-12.3S332.2,419.4,325.5,419.4z"/> <path d="M325.5,308.3H186.5c-6.8,0-12.3,5.5-12.3,12.3s5.5,12.3,12.3,12.3h138.9c6.8,0,12.3-5.5,12.3-12.3S332.2,308.3,325.5,308.3z"/> </symbol><symbol viewBox="0 0 60.6 79.5" id="icon-report"><title>icon-report</title> <path d="M40.9,0H0v79.5h60.6v-59L40.9,0z M42.6,10.6l7.8,8.1h-7.8V10.6z M54.6,73.3H5.9V6.2h30.7v15.6 c0,1.7,1.3,3.1,3,3.1h15V73.3z M13.2,65.7h34.1v-4.1H13.2V65.7z M33.5,22.8H13.2v4.1h20.2V22.8z M33.9,44.8l-6.6-6.9L12.6,53.2 l2.8,2.9l11.9-12.4l6.6,6.9l11.3-11.8v2.3h4v-9.3h-9v4.1h2.2L33.9,44.8z M33.5,13.8H13.2v4.1h20.2V13.8z"/> </symbol><symbol viewBox="0 0 320.9 199" id="icon-right-arrow"><title>icon-right-arrow</title> <path d="M14.7,85.4c-7.6,0-13.9,6.2-13.9,13.9c0,7.6,6.2,13.9,13.9,13.9h258.9l-61.8,61.8c-5.4,5.4-5.4,14.2,0,19.6 c2.7,2.7,6.3,4.1,9.8,4.1c3.5,0,7.1-1.4,9.8-4.1l85.4-85.4c5.4-5.4,5.4-14.2,0-19.6L231.4,4.1c-5.4-5.4-14.2-5.4-19.6,0 c-5.4,5.4-5.4,14.2,0,19.6l61.8,61.8H14.7L14.7,85.4z M14.7,85.4"/> </symbol><symbol viewBox="0 0 20.1 19.9" id="icon-round-check"><title>icon-round-check</title> <path d="M10,0C4.5,0,0,4.5,0,10s4.5,10,10,10c5.5,0,10-4.5,10-10S15.6,0,10,0z M10,18.3c-4.6,0-8.4-3.7-8.4-8.3 c0-4.6,3.8-8.3,8.4-8.3c4.6,0,8.4,3.7,8.4,8.3C18.4,14.6,14.7,18.3,10,18.3z M14.4,6.1l-6,5.9L5.7,9.4C5.4,9,4.8,9,4.5,9.4 c-0.3,0.3-0.3,0.8,0,1.2l3.3,3.3C8,14,8.2,14,8.4,14C8.6,14,8.8,14,9,13.8l6.5-6.5c0.3-0.3,0.3-0.8,0-1.2 C15.2,5.8,14.7,5.8,14.4,6.1z"/> </symbol><symbol viewBox="0 0 56.966 56.966" id="icon-search"><title>icon-search</title> <path d="M55.146,51.887L41.588,37.786c3.486-4.144,5.396-9.358,5.396-14.786c0-12.682-10.318-23-23-23s-23,10.318-23,23 s10.318,23,23,23c4.761,0,9.298-1.436,13.177-4.162l13.661,14.208c0.571,0.593,1.339,0.92,2.162,0.92 c0.779,0,1.518-0.297,2.079-0.837C56.255,54.982,56.293,53.08,55.146,51.887z M23.984,6c9.374,0,17,7.626,17,17s-7.626,17-17,17 s-17-7.626-17-17S14.61,6,23.984,6z"/> </symbol><symbol viewBox="0 0 478.703 478.703" id="icon-settings"><title>icon-settings</title> <path d="M454.2,189.101l-33.6-5.7c-3.5-11.3-8-22.2-13.5-32.6l19.8-27.7c8.4-11.8,7.1-27.9-3.2-38.1l-29.8-29.8 c-5.6-5.6-13-8.7-20.9-8.7c-6.2,0-12.1,1.9-17.1,5.5l-27.8,19.8c-10.8-5.7-22.1-10.4-33.8-13.9l-5.6-33.2 c-2.4-14.3-14.7-24.7-29.2-24.7h-42.1c-14.5,0-26.8,10.4-29.2,24.7l-5.8,34c-11.2,3.5-22.1,8.1-32.5,13.7l-27.5-19.8 c-5-3.6-11-5.5-17.2-5.5c-7.9,0-15.4,3.1-20.9,8.7l-29.9,29.8c-10.2,10.2-11.6,26.3-3.2,38.1l20,28.1 c-5.5,10.5-9.9,21.4-13.3,32.7l-33.2,5.6c-14.3,2.4-24.7,14.7-24.7,29.2v42.1c0,14.5,10.4,26.8,24.7,29.2l34,5.8 c3.5,11.2,8.1,22.1,13.7,32.5l-19.7,27.4c-8.4,11.8-7.1,27.9,3.2,38.1l29.8,29.8c5.6,5.6,13,8.7,20.9,8.7c6.2,0,12.1-1.9,17.1-5.5 l28.1-20c10.1,5.3,20.7,9.6,31.6,13l5.6,33.6c2.4,14.3,14.7,24.7,29.2,24.7h42.2c14.5,0,26.8-10.4,29.2-24.7l5.7-33.6 c11.3-3.5,22.2-8,32.6-13.5l27.7,19.8c5,3.6,11,5.5,17.2,5.5l0,0c7.9,0,15.3-3.1,20.9-8.7l29.8-29.8c10.2-10.2,11.6-26.3,3.2-38.1 l-19.8-27.8c5.5-10.5,10.1-21.4,13.5-32.6l33.6-5.6c14.3-2.4,24.7-14.7,24.7-29.2v-42.1 C478.9,203.801,468.5,191.501,454.2,189.101z M451.9,260.401c0,1.3-0.9,2.4-2.2,2.6l-42,7c-5.3,0.9-9.5,4.8-10.8,9.9 c-3.8,14.7-9.6,28.8-17.4,41.9c-2.7,4.6-2.5,10.3,0.6,14.7l24.7,34.8c0.7,1,0.6,2.5-0.3,3.4l-29.8,29.8c-0.7,0.7-1.4,0.8-1.9,0.8 c-0.6,0-1.1-0.2-1.5-0.5l-34.7-24.7c-4.3-3.1-10.1-3.3-14.7-0.6c-13.1,7.8-27.2,13.6-41.9,17.4c-5.2,1.3-9.1,5.6-9.9,10.8l-7.1,42 c-0.2,1.3-1.3,2.2-2.6,2.2h-42.1c-1.3,0-2.4-0.9-2.6-2.2l-7-42c-0.9-5.3-4.8-9.5-9.9-10.8c-14.3-3.7-28.1-9.4-41-16.8 c-2.1-1.2-4.5-1.8-6.8-1.8c-2.7,0-5.5,0.8-7.8,2.5l-35,24.9c-0.5,0.3-1,0.5-1.5,0.5c-0.4,0-1.2-0.1-1.9-0.8l-29.8-29.8 c-0.9-0.9-1-2.3-0.3-3.4l24.6-34.5c3.1-4.4,3.3-10.2,0.6-14.8c-7.8-13-13.8-27.1-17.6-41.8c-1.4-5.1-5.6-9-10.8-9.9l-42.3-7.2 c-1.3-0.2-2.2-1.3-2.2-2.6v-42.1c0-1.3,0.9-2.4,2.2-2.6l41.7-7c5.3-0.9,9.6-4.8,10.9-10c3.7-14.7,9.4-28.9,17.1-42 c2.7-4.6,2.4-10.3-0.7-14.6l-24.9-35c-0.7-1-0.6-2.5,0.3-3.4l29.8-29.8c0.7-0.7,1.4-0.8,1.9-0.8c0.6,0,1.1,0.2,1.5,0.5l34.5,24.6 c4.4,3.1,10.2,3.3,14.8,0.6c13-7.8,27.1-13.8,41.8-17.6c5.1-1.4,9-5.6,9.9-10.8l7.2-42.3c0.2-1.3,1.3-2.2,2.6-2.2h42.1 c1.3,0,2.4,0.9,2.6,2.2l7,41.7c0.9,5.3,4.8,9.6,10,10.9c15.1,3.8,29.5,9.7,42.9,17.6c4.6,2.7,10.3,2.5,14.7-0.6l34.5-24.8 c0.5-0.3,1-0.5,1.5-0.5c0.4,0,1.2,0.1,1.9,0.8l29.8,29.8c0.9,0.9,1,2.3,0.3,3.4l-24.7,34.7c-3.1,4.3-3.3,10.1-0.6,14.7 c7.8,13.1,13.6,27.2,17.4,41.9c1.3,5.2,5.6,9.1,10.8,9.9l42,7.1c1.3,0.2,2.2,1.3,2.2,2.6v42.1H451.9z"/> <path d="M239.4,136.001c-57,0-103.3,46.3-103.3,103.3s46.3,103.3,103.3,103.3s103.3-46.3,103.3-103.3S296.4,136.001,239.4,136.001 z M239.4,315.601c-42.1,0-76.3-34.2-76.3-76.3s34.2-76.3,76.3-76.3s76.3,34.2,76.3,76.3S281.5,315.601,239.4,315.601z"/> </symbol><symbol viewBox="0 0 512 512" id="icon-trash"><title>icon-trash</title> <path d="M436,60h-90V45c0-24.813-20.187-45-45-45h-90c-24.813,0-45,20.187-45,45v15H76c-24.813,0-45,20.187-45,45v30 c0,8.284,6.716,15,15,15h16.183L88.57,470.945c0.003,0.043,0.007,0.086,0.011,0.129C90.703,494.406,109.97,512,133.396,512 h245.207c23.427,0,42.693-17.594,44.815-40.926c0.004-0.043,0.008-0.086,0.011-0.129L449.817,150H466c8.284,0,15-6.716,15-15v-30 C481,80.187,460.813,60,436,60z M196,45c0-8.271,6.729-15,15-15h90c8.271,0,15,6.729,15,15v15H196V45z M393.537,468.408 c-0.729,7.753-7.142,13.592-14.934,13.592H133.396c-7.792,0-14.204-5.839-14.934-13.592L92.284,150h327.432L393.537,468.408z M451,120h-15H76H61v-15c0-8.271,6.729-15,15-15h105h150h105c8.271,0,15,6.729,15,15V120z"/> <path d="M256,180c-8.284,0-15,6.716-15,15v212c0,8.284,6.716,15,15,15s15-6.716,15-15V195C271,186.716,264.284,180,256,180z"/> <path d="M346,180c-8.284,0-15,6.716-15,15v212c0,8.284,6.716,15,15,15s15-6.716,15-15V195C361,186.716,354.284,180,346,180z"/> <path d="M166,180c-8.284,0-15,6.716-15,15v212c0,8.284,6.716,15,15,15s15-6.716,15-15V195C181,186.716,174.284,180,166,180z"/> </symbol><symbol viewBox="0 0 106.9 110.8" id="logo-animated"><title>logo-animated</title> <g fill="none" stroke-width="10" stroke-miterlimit="10"> <path d="M78.3,47.7c21.3,11.5,23.2,28.1,23.2,28.1c4.2,30.7-24.2,30-24.2,30h-68l2.3-5.8c18.8-47.3,25-54.8,25-54.8 c7.8-9.1,9.8,0,9.8,0l1.6,11.6c1.4,10.8,7.9,5.8,7.9,5.8C75.3,39.8,77.2,24,77.2,24C77.8,6,61.5,5,61.5,5L10,5c-5-0.3-5,5.3-5,5.3 c0,5.4,0,73.4,0,75"/> </g> </symbol><symbol viewBox="0 0 107.8 111.7" id="logo"><title>logo</title> <path d="M57.5,11L57.5,11c0.1,0,1.2,0,2.7,0.3c1.1,0.2,2.5,0.5,3.8,1c1,0.4,2,0.8,2.9,1.4c1.3,0.8,2.4,1.8,3.2,3.1 c0.8,1.3,1.3,2.9,1.3,5.5c0,2.6-0.7,6.2-2.5,10.9L79,37.2c2.3-5.6,3.3-10.6,3.3-15c0-2.6-0.4-5.1-1.1-7.2c-0.6-1.9-1.5-3.6-2.6-5.2 c-1.9-2.6-3.9-4.8-6.3-6.1c-3.5-2-6.5-2.9-9.2-3.3C60.5-0.1,57.7,0,57.5,0c0,0-10.5,0-21.6,0S13.2,0,10.8,0C9.7,0,8.6,0.2,7.6,0.5 C5.8,1,4.4,2.1,3.3,3.2C2.6,4,2,4.8,1.6,5.6c-0.6,1.2-1,2.2-1.2,3C0.1,9.4,0.1,10,0,10.2l0,0.3v90l11-26h0V10.8H5.5l5.5,0.7 l-3.4-0.4l3.3,0.5l0-0.1l-3.4-0.4l3.3,0.5l-0.9-0.1l0.9,0.1l0,0l-0.9-0.1l0.9,0.1l0-0.1c0-0.1,0.1-0.3,0.2-0.5 c0-0.1,0.1-0.2,0.1-0.3l0,0l0,0l-0.6-0.5l0.3,0.7c0.1-0.1,0.2-0.2,0.2-0.2l-0.6-0.5l0.3,0.7l-0.4-0.8l0.2,0.8l0.2-0.1l-0.4-0.8 l0.2,0.8l-0.1-0.4l0,0.4l0,0l-0.1-0.4l0,0.4l0,0C15.5,11,57.5,11,57.5,11"/> <line x1="57.5" y1="11" x2="57.5" y2="11"/> <path d="M76.1,53.8c3.7,0.6,5.8,1.9,8.5,3.6c4,2.5,7.1,6.1,9.1,10.2c2.1,4.1,3.1,8.7,3.1,13.1c0,2.8-0.4,5.5-1.2,7.9 c-0.6,1.8-1.4,3.5-2.4,4.9c-1.5,2.2-3.4,3.9-5.8,5.2c-2.4,1.2-5.3,2-9,2c-18.8,0-36.1,0-48.6,0c-6.3,0-11.3,0-14.9,0 c-3.5,0-5.5,0-5.5,0v5.5l5,2.2c0,0,0,0,19.3-44c1.7-3.8,3.2-7,4.6-9.5c2-3.8,3.7-6.2,4.8-7.3c0.5-0.6,0.9-0.8,0.9-0.8l0,0l-0.6-1.1 l0.3,1.2c0.2,0,0.3-0.1,0.3-0.1l-0.6-1.1l0.3,1.2l-0.7-2.5v2.6c0.3,0,0.6,0,0.7-0.1l-0.7-2.5v2.6v-3.1L42,46.7 c0.3,0.1,0.8,0.2,1.1,0.2v-3.1L42,46.7l1-2.5l-1.7,2.1c0.1,0.1,0.4,0.3,0.7,0.4l1-2.5l-1.7,2.1l0.9-1.1l-1.1,0.9 c0,0,0.1,0.1,0.2,0.2l0.9-1.1l-1.1,0.9l0.2-0.2l-0.2,0.1l0,0l0.2-0.2l-0.2,0.1c0,0,0.1,0.2,0.3,0.5c0.3,0.6,0.5,1.5,0.8,2.6 c0.3,1.6,0.6,3.4,0.7,4.8c0.1,0.7,0.1,1.3,0.1,1.7c0,0.2,0,0.3,0,0.4l0,0.1l0,0l1.3,0l-1.3,0v0l1.3,0l-1.3,0l0,0 c0,0.1,0,0.7,0.1,1.7c0.1,0.7,0.2,1.6,0.4,2.6c0.2,0.7,0.4,1.5,0.7,2.4c0.2,0.6,0.5,1.3,0.9,2c0.6,1,1.3,2.1,2.6,3.1 c0.6,0.5,1.4,0.9,2.2,1.2c0.8,0.3,1.8,0.5,2.7,0.4c1.1,0,2.2-0.2,3.1-0.6c1.7-0.6,3.1-1.6,4.5-2.8c2.1-1.8,4.2-4.3,6.6-7.8 c2.4-3.5,5.1-7.9,8.3-13.7c1.6-3,2.6-4.9,4-7.5c5.2-10.5,3.9-20.1,1.1-25c-3.2,5.8-7.7,14.2-14.8,27.2c-4.5,8.4-8.1,13.6-10.5,16.5 c-1.2,1.4-2.2,2.2-2.6,2.6c-0.1,0.1-0.2,0.1-0.3,0.2l0,0l0,0l0.6,1.6l0-1.7c-0.4,0-0.6,0.1-0.6,0.1l0.6,1.6l0-1.7v2.9l1.5-2.5 c-0.4-0.2-1-0.4-1.5-0.4v2.9l1.5-2.5l-1.1,2l1.8-1.4c-0.1-0.1-0.3-0.3-0.6-0.5l-1.1,2l1.8-1.4L53.9,60l0.7-0.4l-0.1-0.1L53.9,60 l0.7-0.4l-0.1,0l0.1,0l0,0l-0.1,0l0.1,0c0,0-0.1-0.3-0.3-0.7c-0.2-0.6-0.3-1.4-0.4-2c0-0.3,0-0.6-0.1-0.7l0-0.2l0,0L51.5,56l2.4,0 l0,0L51.5,56l2.4,0l0,0c0-0.1,0-1.1-0.1-2.6c-0.1-1.1-0.2-2.5-0.5-4.1c-0.2-1.1-0.4-2.4-0.7-3.6c-0.2-0.9-0.5-1.9-0.9-2.8 c-0.3-0.7-0.6-1.4-1-2.1c-0.6-1.1-1.4-2.2-2.6-3.1c-0.6-0.5-1.4-0.9-2.2-1.2c-0.9-0.3-1.8-0.5-2.7-0.5c-1.2,0-2.3,0.3-3.2,0.6 c-1.7,0.7-3,1.7-4.3,3c-1.9,1.9-3.6,4.3-5.5,7.6c-1.9,3.3-4,7.5-6.3,12.8C4.5,104,4.5,104,4.5,104l-3.4,7.7h8.4c0,0,2,0,5.5,0 c10.6,0,35.2,0,63.4,0c4.7,0,9-0.9,12.7-2.6c2.8-1.3,5.3-3,7.4-5c3.2-3,5.5-6.7,7-10.7c1.5-4,2.2-8.3,2.2-12.6 c0-4.1-0.6-8.2-1.9-12.2c-1.9-6-5.3-11.7-10.1-16.3c-4.8-4.6-11.3-8.1-14.2-8.3L76.1,53.8z"/> <circle class="svg-logo-dot" cx="98.5" cy="21.1" r="9.3"/> </symbol></svg>