<svg version="1.1" xmlns="http://www.w3.org/2000/svg" xmlns:xlink="http://www.w3.org/1999/xlink" x="0px" y="0px" viewBox="0 0 20.1 19.9">
	<path d="M10,0C4.5,0,0,4.5,0,10s4.5,10,10,10c5.5,0,10-4.5,10-10S15.6,0,10,0z M10,18.3c-4.6,0-8.4-3.7-8.4-8.3 c0-4.6,3.8-8.3,8.4-8.3c4.6,0,8.4,3.7,8.4,8.3C18.4,14.6,14.7,18.3,10,18.3z M14.4,6.1l-6,5.9L5.7,9.4C5.4,9,4.8,9,4.5,9.4 c-0.3,0.3-0.3,0.8,0,1.2l3.3,3.3C8,14,8.2,14,8.4,14C8.6,14,8.8,14,9,13.8l6.5-6.5c0.3-0.3,0.3-0.8,0-1.2 C15.2,5.8,14.7,5.8,14.4,6.1z"/>
</svg>