<svg version="1.1" xmlns="http://www.w3.org/2000/svg" xmlns:xlink="http://www.w3.org/1999/xlink" x="0px" y="0px" viewBox="0 0 21 21">
	<path d="M19.2,2.5h-0.6V1.8c0-1-0.8-1.8-1.8-1.8c-1,0-1.8,0.8-1.8,1.8v0.6H6.2V1.8c0-1-0.8-1.8-1.8-1.8 S2.5,0.8,2.5,1.8v0.6H1.8C0.8,2.5,0,3.3,0,4.3v14.8c0,1,0.8,1.8,1.8,1.8h17.3c1,0,1.8-0.8,1.8-1.8V4.3C21,3.3,20.2,2.5,19.2,2.5z M16.1,1.8c0-0.3,0.3-0.6,0.6-0.6c0.3,0,0.6,0.3,0.6,0.6v2.5c0,0.3-0.3,0.6-0.6,0.6c-0.3,0-0.6-0.3-0.6-0.6V1.8z M3.7,1.8 c0-0.3,0.3-0.6,0.6-0.6c0.3,0,0.6,0.3,0.6,0.6v2.5c0,0.3-0.3,0.6-0.6,0.6C4,4.9,3.7,4.6,3.7,4.3V1.8z M19.8,19.2 c0,0.3-0.3,0.6-0.6,0.6H1.8c-0.3,0-0.6-0.3-0.6-0.6V8.7h18.5V19.2z M19.8,7.5H1.2V4.3c0-0.3,0.3-0.6,0.6-0.6h0.6v0.6 c0,1,0.8,1.8,1.8,1.8s1.8-0.8,1.8-1.8V3.7h8.7v0.6c0,1,0.8,1.8,1.8,1.8c1,0,1.8-0.8,1.8-1.8V3.7h0.6c0.3,0,0.6,0.3,0.6,0.6V7.5z M4.3,13.6h2.5c0.3,0,0.6-0.3,0.6-0.6v-2.5c0-0.3-0.3-0.6-0.6-0.6H4.3c-0.3,0-0.6,0.3-0.6,0.6V13C3.7,13.3,4,13.6,4.3,13.6z M5,11.2h1.2v1.2H5V11.2z M4.3,18.5h2.5c0.3,0,0.6-0.3,0.6-0.6v-2.5c0-0.3-0.3-0.6-0.6-0.6H4.3c-0.3,0-0.6,0.3-0.6,0.6v2.5 C3.7,18.3,4,18.5,4.3,18.5z M5,16.1h1.2v1.2H5V16.1z M9.3,18.5h2.5c0.3,0,0.6-0.3,0.6-0.6v-2.5c0-0.3-0.3-0.6-0.6-0.6H9.3 c-0.3,0-0.6,0.3-0.6,0.6v2.5C8.7,18.3,8.9,18.5,9.3,18.5z M9.9,16.1h1.2v1.2H9.9V16.1z M9.3,13.6h2.5c0.3,0,0.6-0.3,0.6-0.6v-2.5 c0-0.3-0.3-0.6-0.6-0.6H9.3c-0.3,0-0.6,0.3-0.6,0.6V13C8.7,13.3,8.9,13.6,9.3,13.6z M9.9,11.2h1.2v1.2H9.9V11.2z M14.2,13.6h2.5 c0.3,0,0.6-0.3,0.6-0.6v-2.5c0-0.3-0.3-0.6-0.6-0.6h-2.5c-0.3,0-0.6,0.3-0.6,0.6V13C13.6,13.3,13.9,13.6,14.2,13.6z M14.8,11.2H16 v1.2h-1.2V11.2z M14.2,18.5h2.5c0.3,0,0.6-0.3,0.6-0.6v-2.5c0-0.3-0.3-0.6-0.6-0.6h-2.5c-0.3,0-0.6,0.3-0.6,0.6v2.5 C13.6,18.3,13.9,18.5,14.2,18.5z M14.8,16.1H16v1.2h-1.2V16.1z"/>
</svg>